<mxfile host="Electron" modified="2024-04-12T20:53:12.583Z" agent="Mozilla/5.0 (X11; Linux x86_64) AppleWebKit/537.36 (KHTML, like Gecko) draw.io/24.1.0 Chrome/120.0.6099.109 Electron/28.1.0 Safari/537.36" etag="7MN1Qeix6EDfs65Xg4Hv" version="24.1.0" type="device">
  <diagram name="Page-1" id="n2CTTpIkm5kQyKFoy-F0">
    <mxGraphModel dx="1434" dy="879" grid="1" gridSize="10" guides="1" tooltips="1" connect="1" arrows="1" fold="1" page="1" pageScale="1" pageWidth="850" pageHeight="1100" math="0" shadow="0">
      <root>
        <mxCell id="0" />
        <mxCell id="1" parent="0" />
        <mxCell id="WF_QrhsXUXibcvJfiXmi-1" value="" style="rounded=0;whiteSpace=wrap;html=1;" vertex="1" parent="1">
          <mxGeometry x="60" y="150" width="760" height="400" as="geometry" />
        </mxCell>
        <mxCell id="WF_QrhsXUXibcvJfiXmi-2" value="Dátum szűrő" style="rounded=1;whiteSpace=wrap;html=1;" vertex="1" parent="1">
          <mxGeometry x="120" y="120" width="120" height="20" as="geometry" />
        </mxCell>
        <mxCell id="WF_QrhsXUXibcvJfiXmi-3" value="" style="html=1;verticalLabelPosition=bottom;align=center;labelBackgroundColor=#ffffff;verticalAlign=top;strokeWidth=2;strokeColor=#0080F0;shadow=0;dashed=0;shape=mxgraph.ios7.icons.forward;" vertex="1" parent="1">
          <mxGeometry x="270" y="123.19999999999999" width="30" height="16.8" as="geometry" />
        </mxCell>
        <mxCell id="WF_QrhsXUXibcvJfiXmi-4" value="" style="html=1;verticalLabelPosition=bottom;align=center;labelBackgroundColor=#ffffff;verticalAlign=top;strokeWidth=2;strokeColor=#0080F0;shadow=0;dashed=0;shape=mxgraph.ios7.icons.backward;" vertex="1" parent="1">
          <mxGeometry x="70" y="120" width="30" height="16.8" as="geometry" />
        </mxCell>
        <mxCell id="WF_QrhsXUXibcvJfiXmi-5" value="Event szűrő" style="strokeWidth=1;shadow=0;dashed=0;align=center;html=1;shape=mxgraph.mockup.forms.rrect;rSize=0;fillColor=#eeeeee;strokeColor=#999999;gradientColor=#cccccc;align=left;spacingLeft=4;fontSize=17;fontColor=#666666;labelPosition=right;" vertex="1" parent="1">
          <mxGeometry x="500" y="123.19999999999999" width="15" height="15" as="geometry" />
        </mxCell>
        <mxCell id="WF_QrhsXUXibcvJfiXmi-10" value="Event szűrő 2" style="strokeWidth=1;shadow=0;dashed=0;align=center;html=1;shape=mxgraph.mockup.forms.rrect;rSize=0;fillColor=#eeeeee;strokeColor=#999999;gradientColor=#cccccc;align=left;spacingLeft=4;fontSize=17;fontColor=#666666;labelPosition=right;" vertex="1" parent="1">
          <mxGeometry x="640" y="119.99999999999999" width="15" height="15" as="geometry" />
        </mxCell>
        <mxCell id="WF_QrhsXUXibcvJfiXmi-13" value="" style="line;strokeWidth=2;html=1;" vertex="1" parent="1">
          <mxGeometry x="60" y="190" width="750" height="10" as="geometry" />
        </mxCell>
        <mxCell id="WF_QrhsXUXibcvJfiXmi-14" value="" style="line;strokeWidth=2;html=1;" vertex="1" parent="1">
          <mxGeometry x="60" y="210" width="750" height="10" as="geometry" />
        </mxCell>
        <mxCell id="WF_QrhsXUXibcvJfiXmi-15" value="" style="line;strokeWidth=2;html=1;" vertex="1" parent="1">
          <mxGeometry x="60" y="230" width="750" height="10" as="geometry" />
        </mxCell>
        <mxCell id="WF_QrhsXUXibcvJfiXmi-16" value="" style="line;strokeWidth=2;html=1;" vertex="1" parent="1">
          <mxGeometry x="60" y="230" width="750" height="10" as="geometry" />
        </mxCell>
        <mxCell id="WF_QrhsXUXibcvJfiXmi-17" value="" style="line;strokeWidth=2;html=1;" vertex="1" parent="1">
          <mxGeometry x="60" y="250" width="750" height="10" as="geometry" />
        </mxCell>
        <mxCell id="WF_QrhsXUXibcvJfiXmi-18" value="" style="line;strokeWidth=2;html=1;" vertex="1" parent="1">
          <mxGeometry x="60" y="250" width="750" height="10" as="geometry" />
        </mxCell>
        <mxCell id="WF_QrhsXUXibcvJfiXmi-19" value="" style="line;strokeWidth=2;html=1;" vertex="1" parent="1">
          <mxGeometry x="60" y="270" width="750" height="10" as="geometry" />
        </mxCell>
        <mxCell id="WF_QrhsXUXibcvJfiXmi-20" value="" style="line;strokeWidth=2;html=1;" vertex="1" parent="1">
          <mxGeometry x="60" y="290" width="750" height="10" as="geometry" />
        </mxCell>
        <mxCell id="WF_QrhsXUXibcvJfiXmi-21" value="" style="line;strokeWidth=2;html=1;" vertex="1" parent="1">
          <mxGeometry x="60" y="290" width="750" height="10" as="geometry" />
        </mxCell>
        <mxCell id="WF_QrhsXUXibcvJfiXmi-22" value="" style="line;strokeWidth=2;html=1;" vertex="1" parent="1">
          <mxGeometry x="60" y="310" width="750" height="10" as="geometry" />
        </mxCell>
        <mxCell id="WF_QrhsXUXibcvJfiXmi-23" value="" style="line;strokeWidth=2;html=1;" vertex="1" parent="1">
          <mxGeometry x="60" y="330" width="750" height="10" as="geometry" />
        </mxCell>
        <mxCell id="WF_QrhsXUXibcvJfiXmi-24" value="" style="line;strokeWidth=2;html=1;" vertex="1" parent="1">
          <mxGeometry x="60" y="350" width="750" height="10" as="geometry" />
        </mxCell>
        <mxCell id="WF_QrhsXUXibcvJfiXmi-25" value="" style="line;strokeWidth=2;html=1;" vertex="1" parent="1">
          <mxGeometry x="60" y="370" width="750" height="10" as="geometry" />
        </mxCell>
        <mxCell id="WF_QrhsXUXibcvJfiXmi-26" value="" style="line;strokeWidth=2;html=1;" vertex="1" parent="1">
          <mxGeometry x="60" y="370" width="750" height="10" as="geometry" />
        </mxCell>
        <mxCell id="WF_QrhsXUXibcvJfiXmi-27" value="" style="line;strokeWidth=2;html=1;" vertex="1" parent="1">
          <mxGeometry x="60" y="390" width="750" height="10" as="geometry" />
        </mxCell>
        <mxCell id="WF_QrhsXUXibcvJfiXmi-28" value="" style="line;strokeWidth=2;html=1;" vertex="1" parent="1">
          <mxGeometry x="60" y="410" width="750" height="10" as="geometry" />
        </mxCell>
        <mxCell id="WF_QrhsXUXibcvJfiXmi-29" value="" style="line;strokeWidth=2;html=1;" vertex="1" parent="1">
          <mxGeometry x="60" y="430" width="750" height="10" as="geometry" />
        </mxCell>
        <mxCell id="WF_QrhsXUXibcvJfiXmi-30" value="" style="line;strokeWidth=2;html=1;" vertex="1" parent="1">
          <mxGeometry x="60" y="450" width="750" height="10" as="geometry" />
        </mxCell>
        <mxCell id="WF_QrhsXUXibcvJfiXmi-31" value="" style="line;strokeWidth=2;html=1;" vertex="1" parent="1">
          <mxGeometry x="60" y="470" width="750" height="10" as="geometry" />
        </mxCell>
        <mxCell id="WF_QrhsXUXibcvJfiXmi-32" value="" style="line;strokeWidth=2;html=1;" vertex="1" parent="1">
          <mxGeometry x="60" y="490" width="750" height="10" as="geometry" />
        </mxCell>
        <mxCell id="WF_QrhsXUXibcvJfiXmi-33" value="" style="line;strokeWidth=2;html=1;" vertex="1" parent="1">
          <mxGeometry x="60" y="510" width="750" height="10" as="geometry" />
        </mxCell>
        <mxCell id="WF_QrhsXUXibcvJfiXmi-34" value="" style="line;strokeWidth=2;html=1;" vertex="1" parent="1">
          <mxGeometry x="60" y="530" width="750" height="10" as="geometry" />
        </mxCell>
        <mxCell id="WF_QrhsXUXibcvJfiXmi-35" value="" style="line;strokeWidth=2;direction=south;html=1;" vertex="1" parent="1">
          <mxGeometry x="810" y="195" width="10" height="55" as="geometry" />
        </mxCell>
        <mxCell id="WF_QrhsXUXibcvJfiXmi-36" value="" style="line;strokeWidth=2;direction=south;html=1;" vertex="1" parent="1">
          <mxGeometry x="160" y="150" width="10" height="400" as="geometry" />
        </mxCell>
        <mxCell id="WF_QrhsXUXibcvJfiXmi-37" value="Tanárok \ dáum" style="text;html=1;align=center;verticalAlign=middle;whiteSpace=wrap;rounded=0;" vertex="1" parent="1">
          <mxGeometry x="70" y="165" width="90" height="30" as="geometry" />
        </mxCell>
        <mxCell id="WF_QrhsXUXibcvJfiXmi-38" value="Tanár 1" style="text;html=1;align=center;verticalAlign=middle;whiteSpace=wrap;rounded=0;" vertex="1" parent="1">
          <mxGeometry x="70" y="190" width="90" height="30" as="geometry" />
        </mxCell>
        <mxCell id="WF_QrhsXUXibcvJfiXmi-39" value="1" style="text;html=1;align=center;verticalAlign=middle;whiteSpace=wrap;rounded=0;" vertex="1" parent="1">
          <mxGeometry x="170" y="160" width="20" height="30" as="geometry" />
        </mxCell>
        <mxCell id="WF_QrhsXUXibcvJfiXmi-40" value="2" style="text;html=1;align=center;verticalAlign=middle;whiteSpace=wrap;rounded=0;" vertex="1" parent="1">
          <mxGeometry x="190" y="160" width="20" height="30" as="geometry" />
        </mxCell>
        <mxCell id="WF_QrhsXUXibcvJfiXmi-41" value="3" style="text;html=1;align=center;verticalAlign=middle;whiteSpace=wrap;rounded=0;" vertex="1" parent="1">
          <mxGeometry x="210" y="160" width="20" height="30" as="geometry" />
        </mxCell>
        <mxCell id="WF_QrhsXUXibcvJfiXmi-42" value="..." style="text;html=1;align=center;verticalAlign=middle;whiteSpace=wrap;rounded=0;" vertex="1" parent="1">
          <mxGeometry x="260" y="165" width="20" height="30" as="geometry" />
        </mxCell>
        <mxCell id="WF_QrhsXUXibcvJfiXmi-44" value="29" style="text;html=1;align=center;verticalAlign=middle;whiteSpace=wrap;rounded=0;" vertex="1" parent="1">
          <mxGeometry x="740" y="160" width="20" height="30" as="geometry" />
        </mxCell>
        <mxCell id="WF_QrhsXUXibcvJfiXmi-45" value="30" style="text;html=1;align=center;verticalAlign=middle;whiteSpace=wrap;rounded=0;" vertex="1" parent="1">
          <mxGeometry x="760" y="160" width="20" height="30" as="geometry" />
        </mxCell>
        <mxCell id="WF_QrhsXUXibcvJfiXmi-46" value="31" style="text;html=1;align=center;verticalAlign=middle;whiteSpace=wrap;rounded=0;" vertex="1" parent="1">
          <mxGeometry x="780" y="160" width="20" height="30" as="geometry" />
        </mxCell>
        <mxCell id="WF_QrhsXUXibcvJfiXmi-47" value="Kurzus&lt;span style=&quot;color: rgba(0, 0, 0, 0); font-family: monospace; font-size: 0px; text-align: start; text-wrap: nowrap;&quot;&gt;%3CmxGraphModel%3E%3Croot%3E%3CmxCell%20id%3D%220%22%2F%3E%3CmxCell%20id%3D%221%22%20parent%3D%220%22%2F%3E%3CmxCell%20id%3D%222%22%20value%3D%221%22%20style%3D%22text%3Bhtml%3D1%3Balign%3Dcenter%3BverticalAlign%3Dmiddle%3BwhiteSpace%3Dwrap%3Brounded%3D0%3B%22%20vertex%3D%221%22%20parent%3D%221%22%3E%3CmxGeometry%20x%3D%22180%22%20y%3D%22170%22%20width%3D%2220%22%20height%3D%2230%22%20as%3D%22geometry%22%2F%3E%3C%2FmxCell%3E%3CmxCell%20id%3D%223%22%20value%3D%222%22%20style%3D%22text%3Bhtml%3D1%3Balign%3Dcenter%3BverticalAlign%3Dmiddle%3BwhiteSpace%3Dwrap%3Brounded%3D0%3B%22%20vertex%3D%221%22%20parent%3D%221%22%3E%3CmxGeometry%20x%3D%22200%22%20y%3D%22170%22%20width%3D%2220%22%20height%3D%2230%22%20as%3D%22geometry%22%2F%3E%3C%2FmxCell%3E%3CmxCell%20id%3D%224%22%20value%3D%223%22%20style%3D%22text%3Bhtml%3D1%3Balign%3Dcenter%3BverticalAlign%3Dmiddle%3BwhiteSpace%3Dwrap%3Brounded%3D0%3B%22%20vertex%3D%221%22%20parent%3D%221%22%3E%3CmxGeometry%20x%3D%22220%22%20y%3D%22170%22%20width%3D%2220%22%20height%3D%2230%22%20as%3D%22geometry%22%2F%3E%3C%2FmxCell%3E%3C%2Froot%3E%3C%2FmxGraphModel%3E&lt;/span&gt;" style="rounded=0;whiteSpace=wrap;html=1;fillColor=#333333;" vertex="1" parent="1">
          <mxGeometry x="180" y="195" width="180" height="19" as="geometry" />
        </mxCell>
        <mxCell id="WF_QrhsXUXibcvJfiXmi-48" value="Kurzus&lt;span style=&quot;color: rgba(0, 0, 0, 0); font-family: monospace; font-size: 0px; text-align: start; text-wrap: nowrap;&quot;&gt;%3CmxGraphModel%3E%3Croot%3E%3CmxCell%20id%3D%220%22%2F%3E%3CmxCell%20id%3D%221%22%20parent%3D%220%22%2F%3E%3CmxCell%20id%3D%222%22%20value%3D%221%22%20style%3D%22text%3Bhtml%3D1%3Balign%3Dcenter%3BverticalAlign%3Dmiddle%3BwhiteSpace%3Dwrap%3Brounded%3D0%3B%22%20vertex%3D%221%22%20parent%3D%221%22%3E%3CmxGeometry%20x%3D%22180%22%20y%3D%22170%22%20width%3D%2220%22%20height%3D%2230%22%20as%3D%22geometry%22%2F%3E%3C%2FmxCell%3E%3CmxCell%20id%3D%223%22%20value%3D%222%22%20style%3D%22text%3Bhtml%3D1%3Balign%3Dcenter%3BverticalAlign%3Dmiddle%3BwhiteSpace%3Dwrap%3Brounded%3D0%3B%22%20vertex%3D%221%22%20parent%3D%221%22%3E%3CmxGeometry%20x%3D%22200%22%20y%3D%22170%22%20width%3D%2220%22%20height%3D%2230%22%20as%3D%22geometry%22%2F%3E%3C%2FmxCell%3E%3CmxCell%20id%3D%224%22%20value%3D%223%22%20style%3D%22text%3Bhtml%3D1%3Balign%3Dcenter%3BverticalAlign%3Dmiddle%3BwhiteSpace%3Dwrap%3Brounded%3D0%3B%22%20vertex%3D%221%22%20parent%3D%221%22%3E%3CmxGeometry%20x%3D%22220%22%20y%3D%22170%22%20width%3D%2220%22%20height%3D%2230%22%20as%3D%22geometry%22%2F%3E%3C%2FmxCell%3E%3C%2Froot%3E%3C%2FmxGraphModel%3E&lt;/span&gt;" style="rounded=0;whiteSpace=wrap;html=1;fillColor=#333333;" vertex="1" parent="1">
          <mxGeometry x="305" y="255" width="180" height="19" as="geometry" />
        </mxCell>
        <mxCell id="WF_QrhsXUXibcvJfiXmi-49" value="Kurzus&lt;span style=&quot;color: rgba(0, 0, 0, 0); font-family: monospace; font-size: 0px; text-align: start; text-wrap: nowrap;&quot;&gt;%3CmxGraphModel%3E%3Croot%3E%3CmxCell%20id%3D%220%22%2F%3E%3CmxCell%20id%3D%221%22%20parent%3D%220%22%2F%3E%3CmxCell%20id%3D%222%22%20value%3D%221%22%20style%3D%22text%3Bhtml%3D1%3Balign%3Dcenter%3BverticalAlign%3Dmiddle%3BwhiteSpace%3Dwrap%3Brounded%3D0%3B%22%20vertex%3D%221%22%20parent%3D%221%22%3E%3CmxGeometry%20x%3D%22180%22%20y%3D%22170%22%20width%3D%2220%22%20height%3D%2230%22%20as%3D%22geometry%22%2F%3E%3C%2FmxCell%3E%3CmxCell%20id%3D%223%22%20value%3D%222%22%20style%3D%22text%3Bhtml%3D1%3Balign%3Dcenter%3BverticalAlign%3Dmiddle%3BwhiteSpace%3Dwrap%3Brounded%3D0%3B%22%20vertex%3D%221%22%20parent%3D%221%22%3E%3CmxGeometry%20x%3D%22200%22%20y%3D%22170%22%20width%3D%2220%22%20height%3D%2230%22%20as%3D%22geometry%22%2F%3E%3C%2FmxCell%3E%3CmxCell%20id%3D%224%22%20value%3D%223%22%20style%3D%22text%3Bhtml%3D1%3Balign%3Dcenter%3BverticalAlign%3Dmiddle%3BwhiteSpace%3Dwrap%3Brounded%3D0%3B%22%20vertex%3D%221%22%20parent%3D%221%22%3E%3CmxGeometry%20x%3D%22220%22%20y%3D%22170%22%20width%3D%2220%22%20height%3D%2230%22%20as%3D%22geometry%22%2F%3E%3C%2FmxCell%3E%3C%2Froot%3E%3C%2FmxGraphModel%3E&lt;/span&gt;" style="rounded=0;whiteSpace=wrap;html=1;fillColor=#333333;" vertex="1" parent="1">
          <mxGeometry x="187" y="375" width="180" height="19" as="geometry" />
        </mxCell>
        <mxCell id="WF_QrhsXUXibcvJfiXmi-51" value="Kurzus&lt;span style=&quot;color: rgba(0, 0, 0, 0); font-family: monospace; font-size: 0px; text-align: start; text-wrap: nowrap;&quot;&gt;%3CmxGraphModel%3E%3Croot%3E%3CmxCell%20id%3D%220%22%2F%3E%3CmxCell%20id%3D%221%22%20parent%3D%220%22%2F%3E%3CmxCell%20id%3D%222%22%20value%3D%221%22%20style%3D%22text%3Bhtml%3D1%3Balign%3Dcenter%3BverticalAlign%3Dmiddle%3BwhiteSpace%3Dwrap%3Brounded%3D0%3B%22%20vertex%3D%221%22%20parent%3D%221%22%3E%3CmxGeometry%20x%3D%22180%22%20y%3D%22170%22%20width%3D%2220%22%20height%3D%2230%22%20as%3D%22geometry%22%2F%3E%3C%2FmxCell%3E%3CmxCell%20id%3D%223%22%20value%3D%222%22%20style%3D%22text%3Bhtml%3D1%3Balign%3Dcenter%3BverticalAlign%3Dmiddle%3BwhiteSpace%3Dwrap%3Brounded%3D0%3B%22%20vertex%3D%221%22%20parent%3D%221%22%3E%3CmxGeometry%20x%3D%22200%22%20y%3D%22170%22%20width%3D%2220%22%20height%3D%2230%22%20as%3D%22geometry%22%2F%3E%3C%2FmxCell%3E%3CmxCell%20id%3D%224%22%20value%3D%223%22%20style%3D%22text%3Bhtml%3D1%3Balign%3Dcenter%3BverticalAlign%3Dmiddle%3BwhiteSpace%3Dwrap%3Brounded%3D0%3B%22%20vertex%3D%221%22%20parent%3D%221%22%3E%3CmxGeometry%20x%3D%22220%22%20y%3D%22170%22%20width%3D%2220%22%20height%3D%2230%22%20as%3D%22geometry%22%2F%3E%3C%2FmxCell%3E%3C%2Froot%3E%3C%2FmxGraphModel%3E&lt;/span&gt;" style="rounded=0;whiteSpace=wrap;html=1;fillColor=#333333;" vertex="1" parent="1">
          <mxGeometry x="235" y="455" width="180" height="19" as="geometry" />
        </mxCell>
        <mxCell id="WF_QrhsXUXibcvJfiXmi-52" value="Szabadság" style="rounded=0;whiteSpace=wrap;html=1;fillColor=#171717;" vertex="1" parent="1">
          <mxGeometry x="242" y="335" width="180" height="19" as="geometry" />
        </mxCell>
        <mxCell id="WF_QrhsXUXibcvJfiXmi-54" value="Űnnep" style="rounded=0;whiteSpace=wrap;html=1;" vertex="1" parent="1">
          <mxGeometry x="500" y="190" width="50" height="360" as="geometry" />
        </mxCell>
        <mxCell id="WF_QrhsXUXibcvJfiXmi-55" value="Tanár 2" style="text;html=1;align=center;verticalAlign=middle;whiteSpace=wrap;rounded=0;" vertex="1" parent="1">
          <mxGeometry x="70" y="210" width="90" height="30" as="geometry" />
        </mxCell>
      </root>
    </mxGraphModel>
  </diagram>
</mxfile>
